<?xml version="1.0" encoding="utf-8"?>
<!-- Generator: Adobe Illustrator 22.0.1, SVG Export Plug-In . SVG Version: 6.00 Build 0)  -->
<svg version="1.1" id="Layer_1" xmlns="http://www.w3.org/2000/svg" xmlns:xlink="http://www.w3.org/1999/xlink" x="0px" y="0px"
	 viewBox="0 0 128 128" enable-background="new 0 0 128 128" xml:space="preserve">
<path fill="#010101" d="M100.9,104.3c-0.4,0-0.8-0.1-1.1-0.3l-4.6-2.7c-0.7-0.4-1.1-1.1-1.1-1.9V62.5L65.3,45.3l0,0
	c-0.7,0.4-1.5,0.3-2.1-0.1c-0.7-0.4-1.1-1.1-1.1-1.9v-5.2c0-1.2,1-2.2,2.2-2.2s2.2,1,2.2,2.2v2.7c0,0,0,0,0,0l30.8,18.4
	c0.6,0.3,1.1,0.8,1.2,1.5c0.1,0.4,0.1,0.8,0,1.1v36.3l3.5,2.1c1,0.6,1.4,1.9,0.8,3C102.4,103.9,101.7,104.3,100.9,104.3z M63.6,81
	c-0.4,0-0.8-0.1-1.1-0.3L31.6,62.2c-0.7-0.4-1.1-1.1-1.1-1.9c0-0.8,0.4-1.6,1.1-2l31.6-16.9c1.1-0.6,2.4-0.2,3,0.9
	c0.6,1.1,0.2,2.4-0.9,3L37.1,60.4l26.7,16C75.4,71,85.9,65.3,95,59.6c0.4-0.3,0.9-0.5,1.4-0.5c1.2,0,2.2,0.9,2.2,2.1
	c0,0.8-0.4,1.5-1,1.9c-9.4,5.9-20.3,11.8-32.3,17.4c-0.2,0.1-0.3,0.1-0.5,0.2c-0.1,0-0.2,0.1-0.3,0.1C64.1,81,63.8,81,63.6,81z
	 M113.5,111.3c-0.4,0-0.7-0.1-1.1-0.3l-5.7-3.3c-1-0.6-1.4-1.9-0.8-3s1.9-1.4,3-0.8l5.7,3.3c1,0.6,1.4,1.9,0.8,3
	C115,110.9,114.3,111.3,113.5,111.3z M125.8,118.2c-0.4,0-0.7-0.1-1.1-0.3l-5.6-3.1c-1.1-0.6-1.4-1.9-0.8-3c0.6-1.1,1.9-1.4,3-0.8
	l5.6,3.1c1.1,0.6,1.4,1.9,0.8,3C127.3,117.8,126.6,118.2,125.8,118.2z M64.3,33c-1.2,0-2.2-1-2.2-2.2v-5.3c0-1.2,1-2.2,2.2-2.2
	s2.2,1,2.2,2.2v5.3C66.5,32,65.5,33,64.3,33z M64.3,19.1c-1.2,0-2.2-1-2.2-2.2v-5.9c0-1.2,1-2.2,2.2-2.2s2.2,1,2.2,2.2v5.9
	C66.5,18.2,65.5,19.1,64.3,19.1z M63.6,119.1c-0.4,0-0.8-0.1-1.1-0.3l-30.8-18.3c-0.7-0.4-1.1-1.1-1.1-1.9V60.4c0-1.2,1-2.2,2.2-2.2
	c1.2,0,2.2,1,2.2,2.2v37l27.2,16.2V78.6c0-1.2,1-2.2,2.2-2.2s2.2,1,2.2,2.2v38c0,0.9-0.5,1.7-1.4,2l-0.7,0.3
	C64.1,119.1,63.8,119.1,63.6,119.1z M2.2,116.7c-0.8,0-1.5-0.4-1.9-1.2c-0.6-1.1-0.2-2.4,0.9-3l6.1-3.3c1.1-0.6,2.4-0.2,3,0.9
	c0.6,1.1,0.2,2.4-0.9,3l-6.1,3.3C2.9,116.6,2.5,116.7,2.2,116.7z M14.6,110.2c-0.8,0-1.6-0.4-1.9-1.2c-0.5-1.1-0.1-2.4,0.9-2.9
	l6-3.1c1.1-0.6,2.4-0.1,2.9,0.9c0.6,1.1,0.1,2.4-0.9,2.9l-6,3.1C15.3,110.1,15,110.2,14.6,110.2z M27.3,103.6
	c-0.8,0-1.5-0.4-1.9-1.2c-0.6-1.1-0.1-2.4,0.9-2.9l5.5-2.8c1.1-0.6,2.4-0.1,2.9,0.9c0.6,1.1,0.1,2.4-0.9,2.9l-5.5,2.8
	C28,103.6,27.6,103.6,27.3,103.6z M64.3,118.8c-0.8,0-1.5-0.4-1.9-1.1c-0.6-1.1-0.2-2.4,0.9-3l32.1-17.2c1.1-0.6,2.4-0.2,3,0.9
	c0.6,1.1,0.2,2.4-0.9,3l-32.1,17.2C65,118.8,64.6,118.8,64.3,118.8z"/>
</svg>
